<svg width="155" height="88" viewBox="0 0 155 88" fill="none" xmlns="http://www.w3.org/2000/svg">
<path d="M8.427 77.3765H3.46292L2.60998 79.7988H0.579996L4.82761 67.926H7.07936L11.327 79.7988H9.27993L8.427 77.3765ZM7.88112 75.79L5.95349 70.2801L4.00879 75.79H7.88112ZM14.1633 69.1542C13.8107 69.1542 13.515 69.0348 13.2762 68.796C13.0374 68.5571 12.918 68.2615 12.918 67.9089C12.918 67.5564 13.0374 67.2607 13.2762 67.0219C13.515 66.783 13.8107 66.6636 14.1633 66.6636C14.5044 66.6636 14.7944 66.783 15.0332 67.0219C15.2721 67.2607 15.3915 67.5564 15.3915 67.9089C15.3915 68.2615 15.2721 68.5571 15.0332 68.796C14.7944 69.0348 14.5044 69.1542 14.1633 69.1542ZM15.1185 81.6412C15.1185 82.5623 14.8854 83.2276 14.4191 83.637C13.9642 84.0578 13.2989 84.2682 12.4233 84.2682H11.4168V82.6306H12.0821C12.4801 82.6306 12.7588 82.551 12.918 82.3918C13.0886 82.2439 13.1738 81.9937 13.1738 81.6412V70.3995H15.1185V81.6412ZM21.7488 79.9524C20.8617 79.9524 20.06 79.7533 19.3435 79.3553C18.627 78.9459 18.0641 78.3773 17.6547 77.6494C17.2453 76.9102 17.0406 76.0573 17.0406 75.0906C17.0406 74.1353 17.251 73.2881 17.6717 72.5489C18.0925 71.8097 18.6668 71.241 19.3947 70.843C20.1225 70.445 20.9356 70.246 21.8341 70.246C22.7325 70.246 23.5456 70.445 24.2735 70.843C25.0013 71.241 25.5756 71.8097 25.9964 72.5489C26.4172 73.2881 26.6276 74.1353 26.6276 75.0906C26.6276 76.0459 26.4115 76.8932 25.9793 77.6324C25.5472 78.3716 24.9558 78.9459 24.2052 79.3553C23.466 79.7533 22.6472 79.9524 21.7488 79.9524ZM21.7488 78.2635C22.2492 78.2635 22.7154 78.1441 23.1476 77.9053C23.5911 77.6665 23.9493 77.3083 24.2223 76.8306C24.4952 76.353 24.6317 75.773 24.6317 75.0906C24.6317 74.4083 24.5009 73.834 24.2393 73.3677C23.9778 72.8901 23.6309 72.5318 23.1988 72.293C22.7666 72.0542 22.3003 71.9348 21.8 71.9348C21.2996 71.9348 20.8333 72.0542 20.4011 72.293C19.9804 72.5318 19.6449 72.8901 19.3947 73.3677C19.1445 73.834 19.0194 74.4083 19.0194 75.0906C19.0194 76.1028 19.2753 76.8875 19.787 77.4447C20.3102 77.9906 20.9641 78.2635 21.7488 78.2635ZM37.0623 70.3995V79.7988H35.1176V78.69C34.8105 79.0767 34.4068 79.3837 33.9064 79.6112C33.4174 79.8273 32.8943 79.9353 32.337 79.9353C31.5978 79.9353 30.9325 79.7818 30.3412 79.4747C29.7612 79.1677 29.3006 78.7128 28.9594 78.11C28.6296 77.5073 28.4647 76.7794 28.4647 75.9265V70.3995H30.3923V75.6365C30.3923 76.4781 30.6027 77.1263 31.0235 77.5812C31.4443 78.0247 32.0186 78.2465 32.7464 78.2465C33.4743 78.2465 34.0486 78.0247 34.4694 77.5812C34.9015 77.1263 35.1176 76.4781 35.1176 75.6365V70.3995H37.0623ZM41.897 71.9859V77.1888C41.897 77.5414 41.9766 77.7973 42.1358 77.9565C42.3064 78.1043 42.5907 78.1783 42.9887 78.1783H44.1828V79.7988H42.6475C41.7719 79.7988 41.1009 79.5941 40.6346 79.1847C40.1683 78.7753 39.9352 78.11 39.9352 77.1888V71.9859H38.8264V70.3995H39.9352V68.0624H41.897V70.3995H44.1828V71.9859H41.897ZM54.5898 74.8689C54.5898 75.2214 54.5671 75.5398 54.5216 75.8242H47.3399C47.3968 76.5747 47.6754 77.1775 48.1758 77.6324C48.6762 78.0873 49.2903 78.3147 50.0181 78.3147C51.0644 78.3147 51.8036 77.8769 52.2357 77.0012H54.334C54.0496 77.8655 53.5322 78.5763 52.7816 79.1335C52.0424 79.6794 51.1212 79.9524 50.0181 79.9524C49.1197 79.9524 48.3122 79.7533 47.5958 79.3553C46.8907 78.9459 46.3334 78.3773 45.924 77.6494C45.526 76.9102 45.327 76.0573 45.327 75.0906C45.327 74.124 45.5203 73.2767 45.907 72.5489C46.305 71.8097 46.8566 71.241 47.5617 70.843C48.2781 70.445 49.0969 70.246 50.0181 70.246C50.9052 70.246 51.6955 70.4393 52.3893 70.826C53.083 71.2126 53.6232 71.7585 54.0098 72.4636C54.3965 73.1573 54.5898 73.9591 54.5898 74.8689ZM52.5598 74.2548C52.5485 73.5383 52.2926 72.964 51.7922 72.5318C51.2918 72.0997 50.672 71.8836 49.9328 71.8836C49.2618 71.8836 48.6875 72.0997 48.2099 72.5318C47.7322 72.9526 47.4479 73.5269 47.3569 74.2548H52.5598ZM58.4483 71.7642C58.7326 71.2865 59.1079 70.9169 59.5742 70.6554C60.0518 70.3824 60.6148 70.246 61.263 70.246V72.2589H60.7683C60.0063 72.2589 59.4263 72.4522 59.0283 72.8389C58.6416 73.2255 58.4483 73.8965 58.4483 74.8518V79.7988H56.5036V70.3995H58.4483V71.7642ZM75.9941 70.3995V79.7988H74.0494V78.69C73.7424 79.0767 73.3386 79.3837 72.8382 79.6112C72.3492 79.8273 71.8261 79.9353 71.2688 79.9353C70.5296 79.9353 69.8643 79.7818 69.273 79.4747C68.693 79.1677 68.2324 78.7128 67.8912 78.11C67.5614 77.5073 67.3965 76.7794 67.3965 75.9265V70.3995H69.3241V75.6365C69.3241 76.4781 69.5345 77.1263 69.9553 77.5812C70.3761 78.0247 70.9504 78.2465 71.6783 78.2465C72.4061 78.2465 72.9804 78.0247 73.4012 77.5812C73.8333 77.1263 74.0494 76.4781 74.0494 75.6365V70.3995H75.9941ZM83.3023 70.246C84.0415 70.246 84.7011 70.3995 85.2811 70.7065C85.8725 71.0136 86.3331 71.4685 86.6629 72.0712C86.9927 72.674 87.1576 73.4018 87.1576 74.2548V79.7988H85.2299V74.5447C85.2299 73.7032 85.0195 73.0606 84.5988 72.6171C84.178 72.1622 83.6037 71.9348 82.8758 71.9348C82.148 71.9348 81.568 72.1622 81.1358 72.6171C80.7151 73.0606 80.5047 73.7032 80.5047 74.5447V79.7988H78.56V70.3995H80.5047V71.4742C80.8231 71.0875 81.2268 70.7861 81.7158 70.5701C82.2162 70.354 82.745 70.246 83.3023 70.246ZM98.2528 74.8689C98.2528 75.2214 98.23 75.5398 98.1845 75.8242H91.0028C91.0597 76.5747 91.3383 77.1775 91.8387 77.6324C92.3391 78.0873 92.9532 78.3147 93.681 78.3147C94.7273 78.3147 95.4665 77.8769 95.8987 77.0012H97.9969C97.7126 77.8655 97.1951 78.5763 96.4446 79.1335C95.7053 79.6794 94.7842 79.9524 93.681 79.9524C92.7826 79.9524 91.9752 79.7533 91.2587 79.3553C90.5536 78.9459 89.9964 78.3773 89.587 77.6494C89.1889 76.9102 88.9899 76.0573 88.9899 75.0906C88.9899 74.124 89.1832 73.2767 89.5699 72.5489C89.9679 71.8097 90.5195 71.241 91.2246 70.843C91.9411 70.445 92.7599 70.246 93.681 70.246C94.5681 70.246 95.3585 70.4393 96.0522 70.826C96.7459 71.2126 97.2861 71.7585 97.6728 72.4636C98.0594 73.1573 98.2528 73.9591 98.2528 74.8689ZM96.2228 74.2548C96.2114 73.5383 95.9555 72.964 95.4551 72.5318C94.9548 72.0997 94.335 71.8836 93.5957 71.8836C92.9248 71.8836 92.3505 72.0997 91.8728 72.5318C91.3952 72.9526 91.1109 73.5269 91.0199 74.2548H96.2228ZM106.542 71.7812C106.872 71.3491 107.322 70.9852 107.89 70.6895C108.459 70.3938 109.101 70.246 109.818 70.246C110.637 70.246 111.381 70.4507 112.052 70.8601C112.735 71.2581 113.269 71.821 113.656 72.5489C114.043 73.2767 114.236 74.1126 114.236 75.0565C114.236 76.0004 114.043 76.8477 113.656 77.5983C113.269 78.3375 112.735 78.9175 112.052 79.3382C111.381 79.7477 110.637 79.9524 109.818 79.9524C109.101 79.9524 108.464 79.8102 107.907 79.5259C107.35 79.2302 106.895 78.8663 106.542 78.4341V84.2682H104.598V70.3995H106.542V71.7812ZM112.257 75.0565C112.257 74.4083 112.121 73.851 111.848 73.3848C111.586 72.9071 111.234 72.5489 110.79 72.3101C110.358 72.0599 109.892 71.9348 109.391 71.9348C108.902 71.9348 108.436 72.0599 107.992 72.3101C107.56 72.5603 107.208 72.9242 106.935 73.4018C106.673 73.8795 106.542 74.4424 106.542 75.0906C106.542 75.7389 106.673 76.3075 106.935 76.7965C107.208 77.2741 107.56 77.6381 107.992 77.8883C108.436 78.1384 108.902 78.2635 109.391 78.2635C109.892 78.2635 110.358 78.1384 110.79 77.8883C111.234 77.6267 111.586 77.2514 111.848 76.7624C112.121 76.2734 112.257 75.7047 112.257 75.0565ZM121.021 70.246C121.737 70.246 122.374 70.3995 122.931 70.7065C123.5 71.0136 123.944 71.4685 124.262 72.0712C124.592 72.674 124.757 73.4018 124.757 74.2548V79.7988H122.829V74.5447C122.829 73.7032 122.619 73.0606 122.198 72.6171C121.777 72.1622 121.203 71.9348 120.475 71.9348C119.747 71.9348 119.167 72.1622 118.735 72.6171C118.314 73.0606 118.104 73.7032 118.104 74.5447V79.7988H116.159V67.1754H118.104V71.4912C118.434 71.0932 118.849 70.7861 119.349 70.5701C119.861 70.354 120.418 70.246 121.021 70.246ZM131.314 79.9524C130.427 79.9524 129.625 79.7533 128.909 79.3553C128.193 78.9459 127.63 78.3773 127.22 77.6494C126.811 76.9102 126.606 76.0573 126.606 75.0906C126.606 74.1353 126.816 73.2881 127.237 72.5489C127.658 71.8097 128.232 71.241 128.96 70.843C129.688 70.445 130.501 70.246 131.4 70.246C132.298 70.246 133.111 70.445 133.839 70.843C134.567 71.241 135.141 71.8097 135.562 72.5489C135.983 73.2881 136.193 74.1353 136.193 75.0906C136.193 76.0459 135.977 76.8932 135.545 77.6324C135.113 78.3716 134.521 78.9459 133.771 79.3553C133.032 79.7533 132.213 79.9524 131.314 79.9524ZM131.314 78.2635C131.815 78.2635 132.281 78.1441 132.713 77.9053C133.157 77.6665 133.515 77.3083 133.788 76.8306C134.061 76.353 134.197 75.773 134.197 75.0906C134.197 74.4083 134.066 73.834 133.805 73.3677C133.543 72.8901 133.196 72.5318 132.764 72.293C132.332 72.0542 131.866 71.9348 131.365 71.9348C130.865 71.9348 130.399 72.0542 129.967 72.293C129.546 72.5318 129.21 72.8901 128.96 73.3677C128.71 73.834 128.585 74.4083 128.585 75.0906C128.585 76.1028 128.841 76.8875 129.353 77.4447C129.876 77.9906 130.53 78.2635 131.314 78.2635ZM140.384 71.9859V77.1888C140.384 77.5414 140.464 77.7973 140.623 77.9565C140.794 78.1043 141.078 78.1783 141.476 78.1783H142.67V79.7988H141.135C140.259 79.7988 139.588 79.5941 139.122 79.1847C138.656 78.7753 138.423 78.11 138.423 77.1888V71.9859H137.314V70.3995H138.423V68.0624H140.384V70.3995H142.67V71.9859H140.384ZM148.54 79.9524C147.653 79.9524 146.851 79.7533 146.134 79.3553C145.418 78.9459 144.855 78.3773 144.445 77.6494C144.036 76.9102 143.831 76.0573 143.831 75.0906C143.831 74.1353 144.042 73.2881 144.463 72.5489C144.883 71.8097 145.458 71.241 146.185 70.843C146.913 70.445 147.726 70.246 148.625 70.246C149.523 70.246 150.336 70.445 151.064 70.843C151.792 71.241 152.366 71.8097 152.787 72.5489C153.208 73.2881 153.418 74.1353 153.418 75.0906C153.418 76.0459 153.202 76.8932 152.77 77.6324C152.338 78.3716 151.747 78.9459 150.996 79.3553C150.257 79.7533 149.438 79.9524 148.54 79.9524ZM148.54 78.2635C149.04 78.2635 149.506 78.1441 149.938 77.9053C150.382 77.6665 150.74 77.3083 151.013 76.8306C151.286 76.353 151.422 75.773 151.422 75.0906C151.422 74.4083 151.292 73.834 151.03 73.3677C150.769 72.8901 150.422 72.5318 149.99 72.293C149.557 72.0542 149.091 71.9348 148.591 71.9348C148.09 71.9348 147.624 72.0542 147.192 72.293C146.771 72.5318 146.436 72.8901 146.185 73.3677C145.935 73.834 145.81 74.4083 145.81 75.0906C145.81 76.1028 146.066 76.8875 146.578 77.4447C147.101 77.9906 147.755 78.2635 148.54 78.2635Z" fill="#BDBDBD"/>
<g clip-path="url(#clip0_116_18)">
<path d="M105.777 53.3739H56.2159C53.0576 53.3739 50.4973 50.8136 50.4973 47.6552V13.3435C50.4973 10.1852 53.0576 7.62488 56.2159 7.62488H105.777C108.936 7.62488 111.496 10.1852 111.496 13.3435V47.6552C111.496 50.8136 108.936 53.3739 105.777 53.3739ZM63.8408 14.2966C60.1561 14.2966 57.169 17.2836 57.169 20.9683C57.169 24.653 60.1561 27.6401 63.8408 27.6401C67.5255 27.6401 70.5125 24.653 70.5125 20.9683C70.5125 17.2836 67.5255 14.2966 63.8408 14.2966ZM58.1221 45.749H103.871V32.4056L93.4448 21.9792C92.8865 21.4209 91.9813 21.4209 91.4229 21.9792L75.278 38.1242L68.6641 31.5103C68.1058 30.952 67.2006 30.952 66.6422 31.5103L58.1221 40.0304V45.749Z" fill="#BDBDBD"/>
</g>
<defs>
<clipPath id="clip0_116_18">
<rect x="50.4976" width="60.9987" height="60.9987" rx="14" fill="white"/>
</clipPath>
</defs>
</svg>
